<?xml version="1.0" standalone="no"?>
<!DOCTYPE svg PUBLIC "-//W3C//DTD SVG 20010904//EN"
 "http://www.w3.org/TR/2001/REC-SVG-20010904/DTD/svg10.dtd">
<svg version="1.0" xmlns="http://www.w3.org/2000/svg"
 width="512.000000pt" height="512.000000pt" viewBox="0 0 512.000000 512.000000"
 preserveAspectRatio="xMidYMid meet">

<g transform="translate(0.000000,512.000000) scale(0.100000,-0.100000)"
fill="#000000" stroke="none">
<path d="M2080 4590 c-772 -209 -1349 -820 -1509 -1600 -47 -227 -53 -512 -16
-735 120 -736 627 -1362 1310 -1617 272 -102 525 -145 799 -135 316 11 579 75
842 203 491 241 861 646 1050 1150 28 75 35 106 31 140 -6 58 -45 108 -101
129 -42 16 -50 16 -153 -1 -162 -26 -440 -24 -598 5 -233 43 -471 141 -672
277 -115 78 -140 99 -251 207 -227 222 -389 505 -466 815 -40 160 -50 248 -50
442 -1 203 12 293 65 482 19 70 27 116 23 135 -18 78 -87 134 -161 132 -21 0
-85 -13 -143 -29z"/>
</g>
</svg>
