<svg width="29" height="29" viewBox="0 0 29 29" fill="none" xmlns="http://www.w3.org/2000/svg">
<g clip-path="url(#clip0_2412_430)">
<path d="M28.2273 14.8225C28.2273 13.8708 28.1501 12.914 27.9855 11.9777H14.7803V17.3689H22.3423C22.0285 19.1076 21.0202 20.6457 19.5438 21.6231V25.1212H24.0553C26.7046 22.6828 28.2273 19.0819 28.2273 14.8225Z" fill="#4285F4"/>
<path d="M14.7803 28.5009C18.5561 28.5009 21.7404 27.2612 24.0605 25.1212L19.549 21.6231C18.2938 22.4771 16.6734 22.9606 14.7854 22.9606C11.133 22.9606 8.0362 20.4965 6.92505 17.1837H2.26953V20.7898C4.64616 25.5173 9.48688 28.5009 14.7803 28.5009Z" fill="#34A853"/>
<path d="M6.9199 17.1837C6.33346 15.4449 6.33346 13.5621 6.9199 11.8234V8.21729H2.26953C0.283856 12.1732 0.283856 16.8339 2.26953 20.7898L6.9199 17.1837Z" fill="#FBBC04"/>
<path d="M14.7803 6.04127C16.7762 6.01041 18.7053 6.76146 20.1508 8.14012L24.1479 4.14305C21.6169 1.76642 18.2578 0.45979 14.7803 0.500943C9.48687 0.500943 4.64616 3.48459 2.26953 8.21728L6.91991 11.8234C8.02591 8.50536 11.1279 6.04127 14.7803 6.04127Z" fill="#EA4335"/>
</g>
<defs>
<clipPath id="clip0_2412_430">
<rect width="28" height="28" fill="white" transform="translate(0.5 0.5)"/>
</clipPath>
</defs>
</svg>
